<svg width="50" height="51" viewBox="0 0 50 51" fill="none" xmlns="http://www.w3.org/2000/svg">
<g clip-path="url(#clip0_175_341)">
<path d="M25 50.7275C38.8071 50.7275 50 39.5347 50 25.7275C50 11.9204 38.8071 0.727539 25 0.727539C11.1929 0.727539 0 11.9204 0 25.7275C0 39.5347 11.1929 50.7275 25 50.7275Z" fill="#F0F0F0"/>
<path d="M25 0.727539C18.0964 0.727539 11.8464 3.52578 7.32227 8.04981L25 25.7275V0.727539Z" fill="black"/>
<path d="M0 25.7275C0 32.6312 2.79824 38.8812 7.32227 43.4053L25 25.7275H0Z" fill="black"/>
<path d="M25 50.7275C31.9036 50.7275 38.1536 47.9293 42.6777 43.4053L25 25.7275V50.7275Z" fill="black"/>
<path d="M50 25.7275C50 18.8239 47.2018 12.5739 42.6777 8.0498L25 25.7275H50Z" fill="black"/>
<path d="M16.3047 18.1186L25.0003 19.2058L33.6959 18.1186V12.9012L30.2177 14.6403L25.0003 9.42285L19.7829 14.6403L16.3047 12.9012V18.1186Z" fill="#FFDA44"/>
<path d="M25.0003 38.7711C20.2055 38.7711 16.3047 34.8702 16.3047 30.0755V21.3803L19.5655 18.1191H30.4351L33.6959 21.3803V30.0755C33.6959 34.8702 29.7951 38.7711 25.0003 38.7711Z" fill="#D80027"/>
<path d="M25.0002 35.5102C22.0034 35.5102 19.5654 33.0721 19.5654 30.0754V21.3799H30.435V30.0753C30.435 33.0721 27.997 35.5102 25.0002 35.5102V35.5102Z" fill="#F0F0F0"/>
<path d="M16.3047 18.1191H19.5655V21.38H16.3047V18.1191Z" fill="#FFDA44"/>
<path d="M30.4355 18.1191H33.6964V21.38H30.4355V18.1191Z" fill="#FFDA44"/>
<path d="M30.4355 25.1846H33.6964V28.4454H30.4355V25.1846Z" fill="#FFDA44"/>
<path d="M16.3047 25.1846H19.5655V28.4454H16.3047V25.1846Z" fill="#FFDA44"/>
<path d="M25.0006 35.51C24.4326 35.51 23.8851 35.4221 23.3701 35.2598V38.6153C23.8986 38.7161 24.4432 38.7709 25.0006 38.7709C25.558 38.7709 26.1025 38.7161 26.6311 38.6153V35.2598C26.1161 35.422 25.5686 35.51 25.0006 35.51Z" fill="#FFDA44"/>
<path d="M19.6385 30.958L17.0361 33.5604C17.4873 34.5876 18.1311 35.5113 18.9223 36.2857L21.227 33.9811C20.4045 33.1864 19.8315 32.1356 19.6385 30.958Z" fill="#FFDA44"/>
<path d="M32.9651 33.5604L30.3628 30.958C30.1696 32.1355 29.5968 33.1862 28.7744 33.9812L31.0791 36.2858C31.8701 35.5113 32.514 34.5876 32.9651 33.5604Z" fill="#FFDA44"/>
<path d="M23.9131 23.1914V25.0029C23.9131 25.6031 24.3997 26.0898 25 26.0898C25.6003 26.0898 26.0869 25.6031 26.0869 25.0029V23.1914H23.9131Z" fill="#0052B4"/>
<path d="M23.9131 30.4375V32.249C23.9131 32.8492 24.3997 33.3359 25 33.3359C25.6003 33.3359 26.0869 32.8492 26.0869 32.249V30.4375H23.9131Z" fill="#0052B4"/>
<path d="M27.1738 26.8145V28.6262C27.1738 29.2264 27.6604 29.7131 28.2607 29.7131C28.861 29.7131 29.3477 29.2264 29.3477 28.6262V26.8145H27.1738Z" fill="#0052B4"/>
<path d="M23.9131 26.8145V28.6262C23.9131 29.2264 24.3997 29.7131 25 29.7131C25.6003 29.7131 26.0869 29.2264 26.0869 28.6262V26.8145H23.9131Z" fill="#0052B4"/>
<path d="M20.6523 26.8145V28.6262C20.6523 29.2264 21.139 29.7131 21.7393 29.7131C22.3396 29.7131 22.8262 29.2264 22.8262 28.6262V26.8145H20.6523Z" fill="#0052B4"/>
</g>
<defs>
<clipPath id="clip0_175_341">
<rect width="50" height="50" fill="white" transform="translate(0 0.727539)"/>
</clipPath>
</defs>
</svg>
