<svg width="50" height="51" viewBox="0 0 50 51" fill="none" xmlns="http://www.w3.org/2000/svg">
<g clip-path="url(#clip0_175_385)">
<path d="M25 50.5459C38.8071 50.5459 50 39.353 50 25.5459C50 11.7388 38.8071 0.545898 25 0.545898C11.1929 0.545898 0 11.7388 0 25.5459C0 39.353 11.1929 50.5459 25 50.5459Z" fill="#D80027"/>
<path d="M34.2561 17.3046L32.4891 23.6104L27.1873 22.6313L23.7746 15.5967L14.5552 18.8683L13.8281 16.8194L11.416 16.5223L13.2335 21.6442L19.5781 20.0217L21.3812 25.1026L16.9952 31.5755L24.4383 37.9237L23.0275 39.5777L23.9762 41.8154L27.5033 37.6803L22.9258 32.997L26.4245 28.8951L34.2231 29.457L35.9994 19.8369L38.1372 20.2317L39.601 18.2913L34.2561 17.3046Z" fill="#F0F0F0"/>
</g>
<defs>
<clipPath id="clip0_175_385">
<rect width="50" height="50" fill="white" transform="translate(0 0.545898)"/>
</clipPath>
</defs>
</svg>
